<svg width="301" height="280" viewBox="0 0 301 280" fill="none" xmlns="http://www.w3.org/2000/svg">
<rect x="0.5" y="0.5" width="300" height="279" rx="11.5" stroke="#ECEBD4"/>
<path d="M49.0389 95.6065C48.0652 89.0736 53.1261 83.2025 59.7311 83.2025L208.912 83.2025C214.283 83.2025 218.839 87.1456 219.61 92.4608L230.341 166.426C231.286 172.946 226.23 178.789 219.642 178.789H70.7553C65.4004 178.789 60.8525 174.868 60.0631 169.572L49.0389 95.6065Z" fill="#5F432F" stroke="#5F432F" stroke-width="3.41379"/>
<path d="M56.3807 88.6109C55.407 82.078 60.4679 76.2069 67.0729 76.2069L216.254 76.2069C221.624 76.2069 226.181 80.15 226.952 85.4652L237.682 159.431C238.628 165.951 233.572 171.793 226.984 171.793H78.0971C72.7422 171.793 68.1943 167.873 67.4049 162.576L56.3807 88.6109Z" fill="#F9F8F0" stroke="#5F432F" stroke-width="3.41379"/>
<mask id="path-4-inside-1_19_5969" fill="white">
<path fill-rule="evenodd" clip-rule="evenodd" d="M95.2416 121.447L79.298 121.447C77.5674 121.447 76.0702 120.242 75.7 118.551C75.197 116.254 76.9463 114.08 79.298 114.08L147.085 114.08C147.089 114.08 147.092 114.08 147.096 114.08L163.039 114.08C164.737 114.08 166.215 115.24 166.618 116.889C167.184 119.209 165.427 121.447 163.039 121.447L95.2529 121.447C95.2492 121.447 95.2454 121.447 95.2416 121.447ZM173.899 125.545H209.968C211.666 125.545 213.143 126.705 213.546 128.354C214.113 130.674 212.356 132.911 209.968 132.911L173.906 132.911C173.904 132.911 173.901 132.911 173.899 132.911L142.181 132.911H106.112C104.382 132.911 102.884 131.707 102.514 130.016C102.011 127.719 103.76 125.545 106.112 125.545L142.177 125.545C142.178 125.545 142.18 125.545 142.181 125.545L173.899 125.545Z"/>
</mask>
<path fill-rule="evenodd" clip-rule="evenodd" d="M95.2416 121.447L79.298 121.447C77.5674 121.447 76.0702 120.242 75.7 118.551C75.197 116.254 76.9463 114.08 79.298 114.08L147.085 114.08C147.089 114.08 147.092 114.08 147.096 114.08L163.039 114.08C164.737 114.08 166.215 115.24 166.618 116.889C167.184 119.209 165.427 121.447 163.039 121.447L95.2529 121.447C95.2492 121.447 95.2454 121.447 95.2416 121.447ZM173.899 125.545H209.968C211.666 125.545 213.143 126.705 213.546 128.354C214.113 130.674 212.356 132.911 209.968 132.911L173.906 132.911C173.904 132.911 173.901 132.911 173.899 132.911L142.181 132.911H106.112C104.382 132.911 102.884 131.707 102.514 130.016C102.011 127.719 103.76 125.545 106.112 125.545L142.177 125.545C142.178 125.545 142.18 125.545 142.181 125.545L173.899 125.545Z" fill="#5F432F"/>
<path d="M95.2416 121.447L95.252 118.033H95.2416V121.447ZM79.298 121.447L79.298 124.86H79.298L79.298 121.447ZM75.7 118.551L72.3652 119.281L75.7 118.551ZM79.298 114.08L79.298 110.666L79.298 114.08ZM147.085 114.08V117.494V114.08ZM147.096 114.08L147.086 117.494H147.096V114.08ZM163.039 114.08V117.494V114.08ZM166.618 116.889L169.934 116.079V116.079L166.618 116.889ZM163.039 121.447V118.033V121.447ZM95.2529 121.447V118.033V121.447ZM173.899 125.545L173.899 128.959H173.899V125.545ZM213.546 128.354L210.23 129.164L210.23 129.164L213.546 128.354ZM209.968 132.911V136.325V132.911ZM173.906 132.911V129.498L173.901 129.498L173.906 132.911ZM173.899 132.911L173.899 136.325H173.899V132.911ZM142.181 132.911V129.498V132.911ZM102.514 130.016L99.1793 130.746L102.514 130.016ZM106.112 125.545V122.131V125.545ZM142.177 125.545V128.959L142.181 128.959L142.177 125.545ZM142.181 125.545V122.131V125.545ZM95.2416 118.033L79.298 118.033L79.298 124.86L95.2416 124.86V118.033ZM79.298 118.033C79.1714 118.033 79.0619 117.945 79.0348 117.821L72.3652 119.281C73.0785 122.539 75.9634 124.86 79.298 124.86L79.298 118.033ZM79.0348 117.821C78.998 117.653 79.126 117.494 79.298 117.494L79.298 110.666C74.7667 110.666 71.396 114.855 72.3652 119.281L79.0348 117.821ZM79.298 117.494L147.085 117.494V110.666L79.298 110.666L79.298 117.494ZM147.085 117.494C147.085 117.494 147.085 117.494 147.086 117.494L147.107 110.666C147.1 110.666 147.092 110.666 147.085 110.666V117.494ZM147.096 117.494L163.039 117.494V110.666L147.096 110.666V117.494ZM163.039 117.494C163.164 117.494 163.272 117.579 163.301 117.699L169.934 116.079C169.158 112.902 166.31 110.666 163.039 110.666V117.494ZM163.301 117.699C163.343 117.869 163.214 118.033 163.039 118.033L163.039 124.86C167.641 124.86 171.026 120.549 169.934 116.079L163.301 117.699ZM163.039 118.033L95.2529 118.033V124.86L163.039 124.86L163.039 118.033ZM95.2529 118.033C95.2526 118.033 95.2523 118.033 95.252 118.033L95.2313 124.86C95.2385 124.86 95.2457 124.86 95.2529 124.86V118.033ZM173.899 128.959H209.968V122.131H173.899V128.959ZM209.968 128.959C210.092 128.959 210.2 129.044 210.23 129.164L216.862 127.544C216.086 124.367 213.239 122.131 209.968 122.131V128.959ZM210.23 129.164C210.271 129.334 210.143 129.498 209.968 129.498V136.325C214.569 136.325 217.954 132.014 216.862 127.544L210.23 129.164ZM209.968 129.498L173.906 129.498L173.906 136.325L209.968 136.325V129.498ZM173.901 129.498C173.898 129.498 173.898 129.498 173.899 129.498V136.325C173.904 136.325 173.909 136.325 173.911 136.325L173.901 129.498ZM173.899 129.498L142.181 129.498L142.181 136.325L173.899 136.325L173.899 129.498ZM142.181 129.498H106.112V136.325H142.181V129.498ZM106.112 129.498C105.986 129.498 105.876 129.41 105.849 129.286L99.1793 130.746C99.8926 134.004 102.777 136.325 106.112 136.325V129.498ZM105.849 129.286C105.812 129.118 105.94 128.959 106.112 128.959V122.131C101.581 122.131 98.2101 126.32 99.1793 130.746L105.849 129.286ZM106.112 128.959L142.177 128.959V122.131L106.112 122.131V128.959ZM142.181 128.959H142.181V122.131C142.178 122.131 142.176 122.131 142.173 122.131L142.181 128.959ZM142.181 128.959L173.899 128.959L173.899 122.131L142.181 122.131L142.181 128.959Z" fill="#5F432F" mask="url(#path-4-inside-1_19_5969)"/>
<path d="M172 188.5H226.889L238 232.5H183.111L172 188.5Z" fill="#F9F8F0" stroke="#5F432F" stroke-width="3"/>
<path d="M225.872 247.607L214.222 214.988L243.504 232.926L235.288 236.822L242.493 245.86L238.204 249.561L231.039 240.362L225.872 247.607Z" fill="#F9F8F0" stroke="#5F432F" stroke-width="3"/>
<path d="M86.6737 173.527C86.6737 183.207 78.8265 191.055 69.1464 191.055C59.4664 191.055 51.6191 183.207 51.6191 173.527C51.6191 163.847 59.4664 156 69.1464 156C78.8265 156 86.6737 163.847 86.6737 173.527Z" fill="#5F432F" stroke="#5F432F" stroke-width="3"/>
<path d="M76.6356 165.971L66.1373 176.469L61.6574 171.989C60.8079 171.14 59.4306 171.14 58.5814 171.989C57.732 172.839 57.732 174.216 58.5814 175.066L64.5993 181.083C65.0239 181.508 65.5807 181.72 66.1373 181.72C66.6938 181.72 67.2506 181.508 67.6752 181.083L79.7113 169.048C80.561 168.198 80.561 166.821 79.7115 165.972C78.8624 165.122 77.4851 165.122 76.6356 165.971Z" fill="#FCFCF8" stroke="#5F432F" stroke-width="3"/>
</svg>
