<svg width="301" height="280" viewBox="0 0 301 280" fill="none" xmlns="http://www.w3.org/2000/svg">
<rect x="0.5" y="0.5" width="300" height="279" rx="11.5" stroke="#ECEBD4"/>
<path d="M52.6085 89.8629C52.1596 86.8495 54.4941 84.1414 57.5408 84.1414L216.779 84.1414C219.257 84.1414 221.359 85.9605 221.715 88.4125L234.106 173.864C234.542 176.872 232.21 179.567 229.171 179.567H70.2715C67.8012 179.567 65.7032 177.758 65.3392 175.315L52.6085 89.8629Z" fill="#5F432F" stroke="#5F432F" stroke-width="1.57476"/>
<path d="M59.7658 83.0089C59.3168 79.9955 61.6513 77.2874 64.6981 77.2874L223.937 77.2874C226.414 77.2874 228.516 79.1065 228.872 81.5585L241.263 167.01C241.699 170.018 239.367 172.713 236.328 172.713H77.4287C74.9584 172.713 72.8604 170.904 72.4964 168.461L59.7658 83.0089Z" fill="#F9F8F0" stroke="#5F432F" stroke-width="1.57476"/>
<path fill-rule="evenodd" clip-rule="evenodd" d="M142.646 155.498C142.646 156.078 143.116 156.548 143.696 156.548H157.775C158.355 156.548 158.825 156.078 158.825 155.498V134.154C158.825 133.574 159.295 133.104 159.875 133.104H181.203C181.782 133.104 182.252 132.634 182.252 132.054V117.965C182.252 117.385 181.782 116.915 181.203 116.915H159.875C159.295 116.915 158.825 116.445 158.825 115.865V94.522C158.825 93.9422 158.355 93.4722 157.775 93.4722L143.696 93.4722C143.116 93.4722 142.646 93.9422 142.646 94.522L142.646 115.865C142.646 116.445 142.176 116.915 141.596 116.915H120.268C119.688 116.915 119.218 117.385 119.218 117.965L119.218 132.054C119.218 132.634 119.688 133.104 120.268 133.104H141.596C142.176 133.104 142.646 133.574 142.646 134.154L142.646 155.498Z" fill="#5F432F"/>
<path d="M142.646 134.154H141.859H142.646ZM142.646 115.865H141.859H142.646ZM157.775 155.76H143.696V157.335H157.775V155.76ZM158.038 134.154V155.498H159.612V134.154H158.038ZM181.203 132.316H159.875V133.891H181.203V132.316ZM181.465 117.965V132.054H183.04V117.965H181.465ZM159.875 117.702H181.203V116.127H159.875V117.702ZM158.038 94.522V115.865H159.612V94.522H158.038ZM143.696 94.2595L157.775 94.2595V92.6848L143.696 92.6848V94.2595ZM143.434 115.865L143.434 94.522L141.859 94.522L141.859 115.865H143.434ZM120.268 117.702H141.596V116.127H120.268V117.702ZM120.005 132.054L120.005 117.965H118.43L118.43 132.054H120.005ZM141.596 132.316H120.268V133.891H141.596V132.316ZM143.434 155.498L143.434 134.154H141.859L141.859 155.498H143.434ZM141.596 133.891C141.741 133.891 141.859 134.009 141.859 134.154H143.434C143.434 133.139 142.611 132.316 141.596 132.316V133.891ZM118.43 132.054C118.43 133.069 119.253 133.891 120.268 133.891V132.316C120.123 132.316 120.005 132.199 120.005 132.054H118.43ZM120.268 116.127C119.253 116.127 118.43 116.95 118.43 117.965H120.005C120.005 117.82 120.123 117.702 120.268 117.702V116.127ZM141.859 115.865C141.859 116.01 141.741 116.127 141.596 116.127V117.702C142.611 117.702 143.434 116.88 143.434 115.865H141.859ZM143.696 92.6848C142.681 92.6848 141.859 93.5073 141.859 94.522L143.434 94.522C143.434 94.3771 143.551 94.2595 143.696 94.2595V92.6848ZM159.612 94.522C159.612 93.5073 158.79 92.6848 157.775 92.6848V94.2595C157.92 94.2595 158.038 94.3771 158.038 94.522H159.612ZM159.875 116.127C159.73 116.127 159.612 116.01 159.612 115.865H158.038C158.038 116.88 158.86 117.702 159.875 117.702V116.127ZM183.04 117.965C183.04 116.95 182.217 116.127 181.203 116.127V117.702C181.348 117.702 181.465 117.82 181.465 117.965H183.04ZM181.203 133.891C182.217 133.891 183.04 133.069 183.04 132.054H181.465C181.465 132.199 181.348 132.316 181.203 132.316V133.891ZM159.612 134.154C159.612 134.009 159.73 133.891 159.875 133.891V132.316C158.86 132.316 158.038 133.139 158.038 134.154H159.612ZM143.696 155.76C143.551 155.76 143.434 155.643 143.434 155.498H141.859C141.859 156.512 142.681 157.335 143.696 157.335V155.76ZM157.775 157.335C158.79 157.335 159.612 156.512 159.612 155.498H158.038C158.038 155.643 157.92 155.76 157.775 155.76V157.335Z" fill="#5F432F"/>
<path d="M72.5962 190.734C72.0998 190.93 71.5302 190.93 71.0338 190.734C63.129 187.615 59.2768 182.818 57.4054 177.375C55.5205 171.894 55.6329 165.731 55.7452 159.846C55.7629 158.92 56.5035 158.149 57.458 158.051C62.3483 157.548 66.5161 156.02 70.1945 153.367C71.156 152.673 72.474 152.673 73.4356 153.367C77.1147 156.021 81.2836 157.549 86.1748 158.051C87.1287 158.149 87.8688 158.92 87.8865 159.845C87.9987 165.73 88.111 171.893 86.2259 177.375C84.3542 182.818 80.5017 187.615 72.5962 190.734Z" fill="#5F432F" stroke="#5F432F" stroke-width="0.924438"/>
<path d="M78.2116 165.357L69.6682 173.9L66.0226 170.254C65.3313 169.563 64.2105 169.563 63.5194 170.254C62.8282 170.946 62.8282 172.067 63.5194 172.758L68.4167 177.655C68.7622 178.001 69.2153 178.173 69.6682 178.173C70.1211 178.173 70.5743 178.001 70.9198 177.655L80.7145 167.861C81.406 167.169 81.406 166.048 80.7147 165.357C80.0237 164.666 78.9029 164.666 78.2116 165.357Z" fill="#F9F8F0" stroke="#5F432F" stroke-width="0.924438"/>
<path d="M272.434 173.49C273.369 178.985 269.136 184 263.561 184L153.367 184C148.959 184 145.201 180.808 144.486 176.46C143.585 170.98 147.813 166 153.367 166L263.561 166C267.949 166 271.697 169.164 272.434 173.49Z" fill="white" stroke="#5F432F" stroke-width="3"/>
<mask id="path-9-inside-1_19_5979" fill="white">
<path d="M156.914 179.395L157.172 176.78L154.959 178.378L153.668 176.126L156.619 175L153.668 173.874L154.959 171.622L157.172 173.221L156.914 170.605L159.533 170.605L159.311 173.221L161.524 171.622L162.778 173.874L159.865 175L162.778 176.126L161.524 178.378L159.311 176.78L159.533 179.395L156.914 179.395Z"/>
</mask>
<path d="M156.914 179.395L157.172 176.78L154.959 178.378L153.668 176.126L156.619 175L153.668 173.874L154.959 171.622L157.172 173.221L156.914 170.605L159.533 170.605L159.311 173.221L161.524 171.622L162.778 173.874L159.865 175L162.778 176.126L161.524 178.378L159.311 176.78L159.533 179.395L156.914 179.395Z" fill="#5F432F"/>
<path d="M156.914 179.395L153.928 179.1L153.603 182.395L156.914 182.395L156.914 179.395ZM157.172 176.78L160.157 177.075L160.811 170.451L155.416 174.348L157.172 176.78ZM154.959 178.378L152.356 179.87L154.014 182.761L156.715 180.81L154.959 178.378ZM153.668 176.126L152.598 173.323L149.32 174.574L151.065 177.618L153.668 176.126ZM156.619 175L157.688 177.803L165.034 175L157.688 172.197L156.619 175ZM153.668 173.874L151.065 172.382L149.32 175.426L152.598 176.677L153.668 173.874ZM154.959 171.622L156.715 169.19L154.014 167.239L152.356 170.13L154.959 171.622ZM157.172 173.221L155.416 175.653L160.811 179.549L160.157 172.926L157.172 173.221ZM156.914 170.605L156.914 167.605L153.603 167.605L153.928 170.9L156.914 170.605ZM159.533 170.605L162.522 170.858L162.797 167.605L159.533 167.605L159.533 170.605ZM159.311 173.221L156.322 172.968L155.771 179.478L161.068 175.653L159.311 173.221ZM161.524 171.622L164.145 170.163L162.504 167.215L159.768 169.19L161.524 171.622ZM162.778 173.874L163.86 176.673L167.078 175.429L165.399 172.415L162.778 173.874ZM159.865 175L158.783 172.202L151.541 175L158.783 177.799L159.865 175ZM162.778 176.126L165.399 177.586L167.078 174.572L163.86 173.328L162.778 176.126ZM161.524 178.378L159.768 180.81L162.504 182.786L164.145 179.838L161.524 178.378ZM159.311 176.78L161.068 174.348L155.771 170.523L156.322 177.033L159.311 176.78ZM159.533 179.395L159.533 182.395L162.797 182.395L162.522 179.142L159.533 179.395ZM159.899 179.69L160.157 177.075L154.186 176.485L153.928 179.1L159.899 179.69ZM155.416 174.348L153.203 175.946L156.715 180.81L158.928 179.212L155.416 174.348ZM157.562 176.886L156.271 174.634L151.065 177.618L152.356 179.87L157.562 176.886ZM154.738 178.929L157.688 177.803L155.549 172.197L152.598 173.323L154.738 178.929ZM157.688 172.197L154.738 171.072L152.598 176.677L155.549 177.803L157.688 172.197ZM156.271 175.366L157.562 173.114L152.356 170.13L151.065 172.382L156.271 175.366ZM153.203 174.055L155.416 175.653L158.928 170.788L156.715 169.19L153.203 174.055ZM160.157 172.926L159.899 170.311L153.928 170.9L154.186 173.515L160.157 172.926ZM156.914 173.605L159.533 173.605L159.533 167.605L156.914 167.605L156.914 173.605ZM156.543 170.353L156.322 172.968L162.301 173.474L162.522 170.858L156.543 170.353ZM161.068 175.653L163.281 174.055L159.768 169.19L157.555 170.788L161.068 175.653ZM158.903 173.082L160.157 175.334L165.399 172.415L164.145 170.163L158.903 173.082ZM161.697 171.076L158.783 172.202L160.946 177.799L163.86 176.673L161.697 171.076ZM158.783 177.799L161.697 178.925L163.86 173.328L160.946 172.202L158.783 177.799ZM160.157 174.667L158.903 176.919L164.145 179.838L165.399 177.586L160.157 174.667ZM163.281 175.946L161.068 174.348L157.555 179.212L159.768 180.81L163.281 175.946ZM156.322 177.033L156.543 179.648L162.522 179.142L162.301 176.527L156.322 177.033ZM159.533 176.395L156.914 176.395L156.914 182.395L159.533 182.395L159.533 176.395Z" fill="#5F432F" mask="url(#path-9-inside-1_19_5979)"/>
<mask id="path-11-inside-2_19_5979" fill="white">
<path d="M171.314 179.395L171.572 176.78L169.359 178.378L168.068 176.126L171.019 175L168.068 173.874L169.359 171.622L171.572 173.221L171.314 170.605L173.933 170.605L173.712 173.221L175.925 171.622L177.179 173.874L174.265 175L177.179 176.126L175.925 178.378L173.712 176.78L173.933 179.395L171.314 179.395Z"/>
</mask>
<path d="M171.314 179.395L171.572 176.78L169.359 178.378L168.068 176.126L171.019 175L168.068 173.874L169.359 171.622L171.572 173.221L171.314 170.605L173.933 170.605L173.712 173.221L175.925 171.622L177.179 173.874L174.265 175L177.179 176.126L175.925 178.378L173.712 176.78L173.933 179.395L171.314 179.395Z" fill="#5F432F"/>
<path d="M171.314 179.395L168.329 179.1L168.003 182.395L171.314 182.395L171.314 179.395ZM171.572 176.78L174.558 177.075L175.212 170.451L169.816 174.348L171.572 176.78ZM169.359 178.378L166.757 179.87L168.414 182.761L171.116 180.81L169.359 178.378ZM168.068 176.126L166.999 173.323L163.721 174.574L165.466 177.618L168.068 176.126ZM171.019 175L172.089 177.803L179.434 175L172.089 172.197L171.019 175ZM168.068 173.874L165.466 172.382L163.721 175.426L166.999 176.677L168.068 173.874ZM169.359 171.622L171.116 169.19L168.414 167.239L166.757 170.13L169.359 171.622ZM171.572 173.221L169.816 175.653L175.212 179.549L174.558 172.926L171.572 173.221ZM171.314 170.605L171.314 167.605L168.003 167.605L168.329 170.9L171.314 170.605ZM173.933 170.605L176.922 170.858L177.198 167.605L173.933 167.605L173.933 170.605ZM173.712 173.221L170.722 172.968L170.171 179.478L175.468 175.653L173.712 173.221ZM175.925 171.622L178.546 170.163L176.904 167.215L174.168 169.19L175.925 171.622ZM177.179 173.874L178.26 176.673L181.478 175.429L179.8 172.415L177.179 173.874ZM174.265 175L173.184 172.202L165.942 175L173.184 177.799L174.265 175ZM177.179 176.126L179.8 177.586L181.478 174.572L178.26 173.328L177.179 176.126ZM175.925 178.378L174.168 180.81L176.904 182.786L178.546 179.838L175.925 178.378ZM173.712 176.78L175.468 174.348L170.171 170.523L170.722 177.033L173.712 176.78ZM173.933 179.395L173.933 182.395L177.198 182.395L176.922 179.142L173.933 179.395ZM174.3 179.69L174.558 177.075L168.587 176.485L168.329 179.1L174.3 179.69ZM169.816 174.348L167.603 175.946L171.116 180.81L173.329 179.212L169.816 174.348ZM171.962 176.886L170.671 174.634L165.466 177.618L166.757 179.87L171.962 176.886ZM169.138 178.929L172.089 177.803L169.95 172.197L166.999 173.323L169.138 178.929ZM172.089 172.197L169.138 171.072L166.999 176.677L169.95 177.803L172.089 172.197ZM170.671 175.366L171.962 173.114L166.757 170.13L165.466 172.382L170.671 175.366ZM167.603 174.055L169.816 175.653L173.329 170.788L171.116 169.19L167.603 174.055ZM174.558 172.926L174.3 170.311L168.329 170.9L168.587 173.515L174.558 172.926ZM171.314 173.605L173.933 173.605L173.933 167.605L171.314 167.605L171.314 173.605ZM170.944 170.353L170.722 172.968L176.701 173.474L176.922 170.858L170.944 170.353ZM175.468 175.653L177.681 174.055L174.168 169.19L171.955 170.788L175.468 175.653ZM173.304 173.082L174.558 175.334L179.8 172.415L178.546 170.163L173.304 173.082ZM176.097 171.076L173.184 172.202L175.346 177.799L178.26 176.673L176.097 171.076ZM173.184 177.799L176.097 178.925L178.26 173.328L175.346 172.202L173.184 177.799ZM174.558 174.667L173.304 176.919L178.546 179.838L179.8 177.586L174.558 174.667ZM177.681 175.946L175.468 174.348L171.955 179.212L174.168 180.81L177.681 175.946ZM170.722 177.033L170.944 179.648L176.922 179.142L176.701 176.527L170.722 177.033ZM173.933 176.395L171.314 176.395L171.314 182.395L173.933 182.395L173.933 176.395Z" fill="#5F432F" mask="url(#path-11-inside-2_19_5979)"/>
<mask id="path-13-inside-3_19_5979" fill="white">
<path d="M185.715 179.395L185.973 176.78L183.76 178.378L182.469 176.126L185.419 175L182.469 173.874L183.76 171.622L185.973 173.221L185.715 170.605L188.333 170.605L188.112 173.221L190.325 171.622L191.579 173.874L188.665 175L191.579 176.126L190.325 178.378L188.112 176.78L188.333 179.395L185.715 179.395Z"/>
</mask>
<path d="M185.715 179.395L185.973 176.78L183.76 178.378L182.469 176.126L185.419 175L182.469 173.874L183.76 171.622L185.973 173.221L185.715 170.605L188.333 170.605L188.112 173.221L190.325 171.622L191.579 173.874L188.665 175L191.579 176.126L190.325 178.378L188.112 176.78L188.333 179.395L185.715 179.395Z" fill="#5F432F"/>
<path d="M185.715 179.395L182.729 179.1L182.404 182.395L185.715 182.395L185.715 179.395ZM185.973 176.78L188.958 177.075L189.612 170.451L184.216 174.348L185.973 176.78ZM183.76 178.378L181.157 179.87L182.814 182.761L185.516 180.81L183.76 178.378ZM182.469 176.126L181.399 173.323L178.121 174.574L179.866 177.618L182.469 176.126ZM185.419 175L186.489 177.803L193.834 175L186.489 172.197L185.419 175ZM182.469 173.874L179.866 172.382L178.121 175.426L181.399 176.677L182.469 173.874ZM183.76 171.622L185.516 169.19L182.814 167.239L181.157 170.13L183.76 171.622ZM185.973 173.221L184.216 175.653L189.612 179.549L188.958 172.926L185.973 173.221ZM185.715 170.605L185.715 167.605L182.404 167.605L182.729 170.9L185.715 170.605ZM188.333 170.605L191.323 170.858L191.598 167.605L188.333 167.605L188.333 170.605ZM188.112 173.221L185.123 172.968L184.572 179.478L189.868 175.653L188.112 173.221ZM190.325 171.622L192.946 170.163L191.304 167.215L188.569 169.19L190.325 171.622ZM191.579 173.874L192.661 176.673L195.879 175.429L194.2 172.415L191.579 173.874ZM188.665 175L187.584 172.202L180.342 175L187.584 177.799L188.665 175ZM191.579 176.126L194.2 177.586L195.879 174.572L192.661 173.328L191.579 176.126ZM190.325 178.378L188.569 180.81L191.304 182.786L192.946 179.838L190.325 178.378ZM188.112 176.78L189.868 174.348L184.572 170.523L185.123 177.033L188.112 176.78ZM188.333 179.395L188.333 182.395L191.598 182.395L191.323 179.142L188.333 179.395ZM188.7 179.69L188.958 177.075L182.987 176.485L182.729 179.1L188.7 179.69ZM184.216 174.348L182.003 175.946L185.516 180.81L187.729 179.212L184.216 174.348ZM186.362 176.886L185.071 174.634L179.866 177.618L181.157 179.87L186.362 176.886ZM183.538 178.929L186.489 177.803L184.35 172.197L181.399 173.323L183.538 178.929ZM186.489 172.197L183.538 171.072L181.399 176.677L184.35 177.803L186.489 172.197ZM185.071 175.366L186.362 173.114L181.157 170.13L179.866 172.382L185.071 175.366ZM182.003 174.055L184.216 175.653L187.729 170.788L185.516 169.19L182.003 174.055ZM188.958 172.926L188.7 170.311L182.729 170.9L182.987 173.515L188.958 172.926ZM185.715 173.605L188.333 173.605L188.333 167.605L185.715 167.605L185.715 173.605ZM185.344 170.353L185.123 172.968L191.101 173.474L191.323 170.858L185.344 170.353ZM189.868 175.653L192.081 174.055L188.569 169.19L186.356 170.788L189.868 175.653ZM187.704 173.082L188.958 175.334L194.2 172.415L192.946 170.163L187.704 173.082ZM190.498 171.076L187.584 172.202L189.747 177.799L192.661 176.673L190.498 171.076ZM187.584 177.799L190.498 178.925L192.661 173.328L189.747 172.202L187.584 177.799ZM188.958 174.667L187.704 176.919L192.946 179.838L194.2 177.586L188.958 174.667ZM192.081 175.946L189.868 174.348L186.356 179.212L188.569 180.81L192.081 175.946ZM185.123 177.033L185.344 179.648L191.323 179.142L191.101 176.527L185.123 177.033ZM188.333 176.395L185.715 176.395L185.715 182.395L188.333 182.395L188.333 176.395Z" fill="#5F432F" mask="url(#path-13-inside-3_19_5979)"/>
<mask id="path-15-inside-4_19_5979" fill="white">
<path d="M200.115 179.395L200.373 176.78L198.16 178.378L196.869 176.126L199.82 175L196.869 173.874L198.16 171.622L200.373 173.221L200.115 170.605L202.734 170.605L202.512 173.221L204.725 171.622L205.98 173.874L203.066 175L205.98 176.126L204.725 178.378L202.512 176.78L202.734 179.395L200.115 179.395Z"/>
</mask>
<path d="M200.115 179.395L200.373 176.78L198.16 178.378L196.869 176.126L199.82 175L196.869 173.874L198.16 171.622L200.373 173.221L200.115 170.605L202.734 170.605L202.512 173.221L204.725 171.622L205.98 173.874L203.066 175L205.98 176.126L204.725 178.378L202.512 176.78L202.734 179.395L200.115 179.395Z" fill="#5F432F"/>
<path d="M200.115 179.395L197.129 179.1L196.804 182.395L200.115 182.395L200.115 179.395ZM200.373 176.78L203.359 177.075L204.013 170.451L198.617 174.348L200.373 176.78ZM198.16 178.378L195.557 179.87L197.215 182.761L199.916 180.81L198.16 178.378ZM196.869 176.126L195.8 173.323L192.521 174.574L194.266 177.618L196.869 176.126ZM199.82 175L200.889 177.803L208.235 175L200.889 172.197L199.82 175ZM196.869 173.874L194.266 172.382L192.521 175.426L195.8 176.677L196.869 173.874ZM198.16 171.622L199.916 169.19L197.215 167.239L195.557 170.13L198.16 171.622ZM200.373 173.221L198.617 175.653L204.013 179.549L203.359 172.926L200.373 173.221ZM200.115 170.605L200.115 167.605L196.804 167.605L197.129 170.9L200.115 170.605ZM202.734 170.605L205.723 170.858L205.998 167.605L202.734 167.605L202.734 170.605ZM202.512 173.221L199.523 172.968L198.972 179.478L204.269 175.653L202.512 173.221ZM204.725 171.622L207.346 170.163L205.705 167.215L202.969 169.19L204.725 171.622ZM205.98 173.874L207.061 176.673L210.279 175.429L208.601 172.415L205.98 173.874ZM203.066 175L201.984 172.202L194.743 175L201.984 177.799L203.066 175ZM205.98 176.126L208.601 177.586L210.279 174.572L207.061 173.328L205.98 176.126ZM204.725 178.378L202.969 180.81L205.705 182.786L207.346 179.838L204.725 178.378ZM202.512 176.78L204.269 174.348L198.972 170.523L199.523 177.033L202.512 176.78ZM202.734 179.395L202.734 182.395L205.998 182.395L205.723 179.142L202.734 179.395ZM203.1 179.69L203.359 177.075L197.388 176.485L197.129 179.1L203.1 179.69ZM198.617 174.348L196.404 175.946L199.916 180.81L202.129 179.212L198.617 174.348ZM200.763 176.886L199.472 174.634L194.266 177.618L195.557 179.87L200.763 176.886ZM197.939 178.929L200.889 177.803L198.75 172.197L195.8 173.323L197.939 178.929ZM200.889 172.197L197.939 171.072L195.8 176.677L198.75 177.803L200.889 172.197ZM199.472 175.366L200.763 173.114L195.557 170.13L194.266 172.382L199.472 175.366ZM196.404 174.055L198.617 175.653L202.129 170.788L199.916 169.19L196.404 174.055ZM203.359 172.926L203.1 170.311L197.129 170.9L197.388 173.515L203.359 172.926ZM200.115 173.605L202.734 173.605L202.734 167.605L200.115 167.605L200.115 173.605ZM199.744 170.353L199.523 172.968L205.502 173.474L205.723 170.858L199.744 170.353ZM204.269 175.653L206.482 174.055L202.969 169.19L200.756 170.788L204.269 175.653ZM202.105 173.082L203.359 175.334L208.601 172.415L207.346 170.163L202.105 173.082ZM204.898 171.076L201.984 172.202L204.147 177.799L207.061 176.673L204.898 171.076ZM201.984 177.799L204.898 178.925L207.061 173.328L204.147 172.202L201.984 177.799ZM203.359 174.667L202.105 176.919L207.346 179.838L208.601 177.586L203.359 174.667ZM206.482 175.946L204.269 174.348L200.756 179.212L202.969 180.81L206.482 175.946ZM199.523 177.033L199.744 179.648L205.723 179.142L205.502 176.527L199.523 177.033ZM202.734 176.395L200.115 176.395L200.115 182.395L202.734 182.395L202.734 176.395Z" fill="#5F432F" mask="url(#path-15-inside-4_19_5979)"/>
<mask id="path-17-inside-5_19_5979" fill="white">
<path d="M214.515 179.395L214.774 176.78L212.56 178.378L211.27 176.126L214.22 175L211.27 173.874L212.56 171.622L214.774 173.221L214.515 170.605L217.134 170.605L216.913 173.221L219.126 171.622L220.38 173.874L217.466 175L220.38 176.126L219.126 178.378L216.913 176.78L217.134 179.395L214.515 179.395Z"/>
</mask>
<path d="M214.515 179.395L214.774 176.78L212.56 178.378L211.27 176.126L214.22 175L211.27 173.874L212.56 171.622L214.774 173.221L214.515 170.605L217.134 170.605L216.913 173.221L219.126 171.622L220.38 173.874L217.466 175L220.38 176.126L219.126 178.378L216.913 176.78L217.134 179.395L214.515 179.395Z" fill="#5F432F"/>
<path d="M214.515 179.395L211.53 179.1L211.205 182.395L214.515 182.395L214.515 179.395ZM214.774 176.78L217.759 177.075L218.413 170.451L213.017 174.348L214.774 176.78ZM212.56 178.378L209.958 179.87L211.615 182.761L214.317 180.81L212.56 178.378ZM211.27 176.126L210.2 173.323L206.922 174.574L208.667 177.618L211.27 176.126ZM214.22 175L215.29 177.803L222.635 175L215.29 172.197L214.22 175ZM211.27 173.874L208.667 172.382L206.922 175.426L210.2 176.677L211.27 173.874ZM212.56 171.622L214.317 169.19L211.615 167.239L209.958 170.13L212.56 171.622ZM214.774 173.221L213.017 175.653L218.413 179.549L217.759 172.926L214.774 173.221ZM214.515 170.605L214.515 167.605L211.205 167.605L211.53 170.9L214.515 170.605ZM217.134 170.605L220.123 170.858L220.399 167.605L217.134 167.605L217.134 170.605ZM216.913 173.221L213.924 172.968L213.373 179.478L218.669 175.653L216.913 173.221ZM219.126 171.622L221.747 170.163L220.105 167.215L217.37 169.19L219.126 171.622ZM220.38 173.874L221.461 176.673L224.68 175.429L223.001 172.415L220.38 173.874ZM217.466 175L216.385 172.202L209.143 175L216.385 177.799L217.466 175ZM220.38 176.126L223.001 177.586L224.68 174.572L221.461 173.328L220.38 176.126ZM219.126 178.378L217.37 180.81L220.105 182.786L221.747 179.838L219.126 178.378ZM216.913 176.78L218.669 174.348L213.373 170.523L213.924 177.033L216.913 176.78ZM217.134 179.395L217.134 182.395L220.399 182.395L220.123 179.142L217.134 179.395ZM217.501 179.69L217.759 177.075L211.788 176.485L211.53 179.1L217.501 179.69ZM213.017 174.348L210.804 175.946L214.317 180.81L216.53 179.212L213.017 174.348ZM215.163 176.886L213.872 174.634L208.667 177.618L209.958 179.87L215.163 176.886ZM212.339 178.929L215.29 177.803L213.151 172.197L210.2 173.323L212.339 178.929ZM215.29 172.197L212.339 171.072L210.2 176.677L213.151 177.803L215.29 172.197ZM213.872 175.366L215.163 173.114L209.958 170.13L208.667 172.382L213.872 175.366ZM210.804 174.055L213.017 175.653L216.53 170.788L214.317 169.19L210.804 174.055ZM217.759 172.926L217.501 170.311L211.53 170.9L211.788 173.515L217.759 172.926ZM214.515 173.605L217.134 173.605L217.134 167.605L214.515 167.605L214.515 173.605ZM214.145 170.353L213.924 172.968L219.902 173.474L220.123 170.858L214.145 170.353ZM218.669 175.653L220.882 174.055L217.37 169.19L215.156 170.788L218.669 175.653ZM216.505 173.082L217.759 175.334L223.001 172.415L221.747 170.163L216.505 173.082ZM219.299 171.076L216.385 172.202L218.547 177.799L221.461 176.673L219.299 171.076ZM216.385 177.799L219.299 178.925L221.461 173.328L218.547 172.202L216.385 177.799ZM217.759 174.667L216.505 176.919L221.747 179.838L223.001 177.586L217.759 174.667ZM220.882 175.946L218.669 174.348L215.156 179.212L217.37 180.81L220.882 175.946ZM213.924 177.033L214.145 179.648L220.123 179.142L219.902 176.527L213.924 177.033ZM217.134 176.395L214.515 176.395L214.515 182.395L217.134 182.395L217.134 176.395Z" fill="#5F432F" mask="url(#path-17-inside-5_19_5979)"/>
<mask id="path-19-inside-6_19_5979" fill="white">
<path d="M228.916 179.395L229.174 176.78L226.961 178.378L225.67 176.126L228.621 175L225.67 173.874L226.961 171.622L229.174 173.221L228.916 170.605L231.535 170.605L231.313 173.221L233.526 171.622L234.78 173.874L231.866 175L234.78 176.126L233.526 178.378L231.313 176.78L231.535 179.395L228.916 179.395Z"/>
</mask>
<path d="M228.916 179.395L229.174 176.78L226.961 178.378L225.67 176.126L228.621 175L225.67 173.874L226.961 171.622L229.174 173.221L228.916 170.605L231.535 170.605L231.313 173.221L233.526 171.622L234.78 173.874L231.866 175L234.78 176.126L233.526 178.378L231.313 176.78L231.535 179.395L228.916 179.395Z" fill="#5F432F"/>
<path d="M228.916 179.395L225.93 179.1L225.605 182.395L228.916 182.395L228.916 179.395ZM229.174 176.78L232.159 177.075L232.813 170.451L227.418 174.348L229.174 176.78ZM226.961 178.378L224.358 179.87L226.016 182.761L228.717 180.81L226.961 178.378ZM225.67 176.126L224.6 173.323L221.322 174.574L223.067 177.618L225.67 176.126ZM228.621 175L229.69 177.803L237.036 175L229.69 172.197L228.621 175ZM225.67 173.874L223.067 172.382L221.322 175.426L224.6 176.677L225.67 173.874ZM226.961 171.622L228.717 169.19L226.016 167.239L224.358 170.13L226.961 171.622ZM229.174 173.221L227.418 175.653L232.813 179.549L232.159 172.926L229.174 173.221ZM228.916 170.605L228.916 167.605L225.605 167.605L225.93 170.9L228.916 170.605ZM231.535 170.605L234.524 170.858L234.799 167.605L231.535 167.605L231.535 170.605ZM231.313 173.221L228.324 172.968L227.773 179.478L233.07 175.653L231.313 173.221ZM233.526 171.622L236.147 170.163L234.506 167.215L231.77 169.19L233.526 171.622ZM234.78 173.874L235.862 176.673L239.08 175.429L237.401 172.415L234.78 173.874ZM231.866 175L230.785 172.202L223.543 175L230.785 177.799L231.866 175ZM234.78 176.126L237.401 177.586L239.08 174.572L235.862 173.328L234.78 176.126ZM233.526 178.378L231.77 180.81L234.506 182.786L236.147 179.838L233.526 178.378ZM231.313 176.78L233.07 174.348L227.773 170.523L228.324 177.033L231.313 176.78ZM231.535 179.395L231.535 182.395L234.799 182.395L234.524 179.142L231.535 179.395ZM231.901 179.69L232.159 177.075L226.188 176.485L225.93 179.1L231.901 179.69ZM227.418 174.348L225.205 175.946L228.717 180.81L230.93 179.212L227.418 174.348ZM229.564 176.886L228.273 174.634L223.067 177.618L224.358 179.87L229.564 176.886ZM226.739 178.929L229.69 177.803L227.551 172.197L224.6 173.323L226.739 178.929ZM229.69 172.197L226.739 171.072L224.6 176.677L227.551 177.803L229.69 172.197ZM228.273 175.366L229.564 173.114L224.358 170.13L223.067 172.382L228.273 175.366ZM225.205 174.055L227.418 175.653L230.93 170.788L228.717 169.19L225.205 174.055ZM232.159 172.926L231.901 170.311L225.93 170.9L226.188 173.515L232.159 172.926ZM228.916 173.605L231.535 173.605L231.535 167.605L228.916 167.605L228.916 173.605ZM228.545 170.353L228.324 172.968L234.303 173.474L234.524 170.858L228.545 170.353ZM233.07 175.653L235.283 174.055L231.77 169.19L229.557 170.788L233.07 175.653ZM230.905 173.082L232.159 175.334L237.401 172.415L236.147 170.163L230.905 173.082ZM233.699 171.076L230.785 172.202L232.948 177.799L235.862 176.673L233.699 171.076ZM230.785 177.799L233.699 178.925L235.862 173.328L232.948 172.202L230.785 177.799ZM232.159 174.667L230.905 176.919L236.147 179.838L237.401 177.586L232.159 174.667ZM235.283 175.946L233.07 174.348L229.557 179.212L231.77 180.81L235.283 175.946ZM228.324 177.033L228.545 179.648L234.524 179.142L234.303 176.527L228.324 177.033ZM231.535 176.395L228.916 176.395L228.916 182.395L231.535 182.395L231.535 176.395Z" fill="#5F432F" mask="url(#path-19-inside-6_19_5979)"/>
<mask id="path-21-inside-7_19_5979" fill="white">
<path d="M243.316 179.395L243.574 176.78L241.361 178.378L240.07 176.126L243.021 175L240.07 173.874L241.361 171.622L243.574 173.221L243.316 170.605L245.935 170.605L245.714 173.221L247.927 171.622L249.181 173.874L246.267 175L249.181 176.126L247.927 178.378L245.714 176.78L245.935 179.395L243.316 179.395Z"/>
</mask>
<path d="M243.316 179.395L243.574 176.78L241.361 178.378L240.07 176.126L243.021 175L240.07 173.874L241.361 171.622L243.574 173.221L243.316 170.605L245.935 170.605L245.714 173.221L247.927 171.622L249.181 173.874L246.267 175L249.181 176.126L247.927 178.378L245.714 176.78L245.935 179.395L243.316 179.395Z" fill="#5F432F"/>
<path d="M243.316 179.395L240.331 179.1L240.005 182.395L243.316 182.395L243.316 179.395ZM243.574 176.78L246.56 177.075L247.214 170.451L241.818 174.348L243.574 176.78ZM241.361 178.378L238.759 179.87L240.416 182.761L243.118 180.81L241.361 178.378ZM240.07 176.126L239.001 173.323L235.723 174.574L237.468 177.618L240.07 176.126ZM243.021 175L244.091 177.803L251.436 175L244.091 172.197L243.021 175ZM240.07 173.874L237.468 172.382L235.723 175.426L239.001 176.677L240.07 173.874ZM241.361 171.622L243.118 169.19L240.416 167.239L238.759 170.13L241.361 171.622ZM243.574 173.221L241.818 175.653L247.214 179.549L246.56 172.926L243.574 173.221ZM243.316 170.605L243.316 167.605L240.005 167.605L240.331 170.9L243.316 170.605ZM245.935 170.605L248.924 170.858L249.2 167.605L245.935 167.605L245.935 170.605ZM245.714 173.221L242.724 172.968L242.173 179.478L247.47 175.653L245.714 173.221ZM247.927 171.622L250.548 170.163L248.906 167.215L246.17 169.19L247.927 171.622ZM249.181 173.874L250.262 176.673L253.48 175.429L251.802 172.415L249.181 173.874ZM246.267 175L245.186 172.202L237.944 175L245.186 177.799L246.267 175ZM249.181 176.126L251.802 177.586L253.48 174.572L250.262 173.328L249.181 176.126ZM247.927 178.378L246.17 180.81L248.906 182.786L250.548 179.838L247.927 178.378ZM245.714 176.78L247.47 174.348L242.173 170.523L242.724 177.033L245.714 176.78ZM245.935 179.395L245.935 182.395L249.2 182.395L248.924 179.142L245.935 179.395ZM246.302 179.69L246.56 177.075L240.589 176.485L240.331 179.1L246.302 179.69ZM241.818 174.348L239.605 175.946L243.118 180.81L245.331 179.212L241.818 174.348ZM243.964 176.886L242.673 174.634L237.468 177.618L238.759 179.87L243.964 176.886ZM241.14 178.929L244.091 177.803L241.952 172.197L239.001 173.323L241.14 178.929ZM244.091 172.197L241.14 171.072L239.001 176.677L241.952 177.803L244.091 172.197ZM242.673 175.366L243.964 173.114L238.759 170.13L237.468 172.382L242.673 175.366ZM239.605 174.055L241.818 175.653L245.331 170.788L243.118 169.19L239.605 174.055ZM246.56 172.926L246.302 170.311L240.331 170.9L240.589 173.515L246.56 172.926ZM243.316 173.605L245.935 173.605L245.935 167.605L243.316 167.605L243.316 173.605ZM242.946 170.353L242.724 172.968L248.703 173.474L248.924 170.858L242.946 170.353ZM247.47 175.653L249.683 174.055L246.17 169.19L243.957 170.788L247.47 175.653ZM245.306 173.082L246.56 175.334L251.802 172.415L250.548 170.163L245.306 173.082ZM248.099 171.076L245.186 172.202L247.348 177.799L250.262 176.673L248.099 171.076ZM245.186 177.799L248.099 178.925L250.262 173.328L247.348 172.202L245.186 177.799ZM246.56 174.667L245.306 176.919L250.548 179.838L251.802 177.586L246.56 174.667ZM249.683 175.946L247.47 174.348L243.957 179.212L246.17 180.81L249.683 175.946ZM242.724 177.033L242.946 179.648L248.924 179.142L248.703 176.527L242.724 177.033ZM245.935 176.395L243.316 176.395L243.316 182.395L245.935 182.395L245.935 176.395Z" fill="#5F432F" mask="url(#path-21-inside-7_19_5979)"/>
<mask id="path-23-inside-8_19_5979" fill="white">
<path d="M257.717 179.395L257.975 176.78L255.762 178.378L254.471 176.126L257.421 175L254.471 173.874L255.762 171.622L257.975 173.221L257.717 170.605L260.335 170.605L260.114 173.221L262.327 171.622L263.581 173.874L260.667 175L263.581 176.126L262.327 178.378L260.114 176.78L260.335 179.395L257.717 179.395Z"/>
</mask>
<path d="M257.717 179.395L257.975 176.78L255.762 178.378L254.471 176.126L257.421 175L254.471 173.874L255.762 171.622L257.975 173.221L257.717 170.605L260.335 170.605L260.114 173.221L262.327 171.622L263.581 173.874L260.667 175L263.581 176.126L262.327 178.378L260.114 176.78L260.335 179.395L257.717 179.395Z" fill="#5F432F"/>
<path d="M257.717 179.395L254.731 179.1L254.406 182.395L257.717 182.395L257.717 179.395ZM257.975 176.78L260.96 177.075L261.614 170.451L256.218 174.348L257.975 176.78ZM255.762 178.378L253.159 179.87L254.816 182.761L257.518 180.81L255.762 178.378ZM254.471 176.126L253.401 173.323L250.123 174.574L251.868 177.618L254.471 176.126ZM257.421 175L258.491 177.803L265.836 175L258.491 172.197L257.421 175ZM254.471 173.874L251.868 172.382L250.123 175.426L253.401 176.677L254.471 173.874ZM255.762 171.622L257.518 169.19L254.816 167.239L253.159 170.13L255.762 171.622ZM257.975 173.221L256.218 175.653L261.614 179.549L260.96 172.926L257.975 173.221ZM257.717 170.605L257.717 167.605L254.406 167.605L254.731 170.9L257.717 170.605ZM260.335 170.605L263.325 170.858L263.6 167.605L260.335 167.605L260.335 170.605ZM260.114 173.221L257.125 172.968L256.574 179.478L261.87 175.653L260.114 173.221ZM262.327 171.622L264.948 170.163L263.306 167.215L260.571 169.19L262.327 171.622ZM263.581 173.874L264.662 176.673L267.881 175.429L266.202 172.415L263.581 173.874ZM260.667 175L259.586 172.202L252.344 175L259.586 177.799L260.667 175ZM263.581 176.126L266.202 177.586L267.881 174.572L264.662 173.328L263.581 176.126ZM262.327 178.378L260.571 180.81L263.306 182.786L264.948 179.838L262.327 178.378ZM260.114 176.78L261.87 174.348L256.574 170.523L257.125 177.033L260.114 176.78ZM260.335 179.395L260.335 182.395L263.6 182.395L263.325 179.142L260.335 179.395ZM260.702 179.69L260.96 177.075L254.989 176.485L254.731 179.1L260.702 179.69ZM256.218 174.348L254.005 175.946L257.518 180.81L259.731 179.212L256.218 174.348ZM258.364 176.886L257.073 174.634L251.868 177.618L253.159 179.87L258.364 176.886ZM255.54 178.929L258.491 177.803L256.352 172.197L253.401 173.323L255.54 178.929ZM258.491 172.197L255.54 171.072L253.401 176.677L256.352 177.803L258.491 172.197ZM257.073 175.366L258.364 173.114L253.159 170.13L251.868 172.382L257.073 175.366ZM254.005 174.055L256.218 175.653L259.731 170.788L257.518 169.19L254.005 174.055ZM260.96 172.926L260.702 170.311L254.731 170.9L254.989 173.515L260.96 172.926ZM257.717 173.605L260.335 173.605L260.335 167.605L257.717 167.605L257.717 173.605ZM257.346 170.353L257.125 172.968L263.103 173.474L263.325 170.858L257.346 170.353ZM261.87 175.653L264.083 174.055L260.571 169.19L258.358 170.788L261.87 175.653ZM259.706 173.082L260.96 175.334L266.202 172.415L264.948 170.163L259.706 173.082ZM262.5 171.076L259.586 172.202L261.749 177.799L264.662 176.673L262.5 171.076ZM259.586 177.799L262.5 178.925L264.662 173.328L261.749 172.202L259.586 177.799ZM260.96 174.667L259.706 176.919L264.948 179.838L266.202 177.586L260.96 174.667ZM264.083 175.946L261.87 174.348L258.358 179.212L260.571 180.81L264.083 175.946ZM257.125 177.033L257.346 179.648L263.325 179.142L263.103 176.527L257.125 177.033ZM260.335 176.395L257.717 176.395L257.717 182.395L260.335 182.395L260.335 176.395Z" fill="#5F432F" mask="url(#path-23-inside-8_19_5979)"/>
<path d="M233.07 214.318C233.485 216.753 231.609 218.976 229.139 218.976L201.465 218.976C199.512 218.976 197.847 217.562 197.53 215.636C197.13 213.207 199.004 211 201.465 211L229.139 211C231.083 211 232.743 212.402 233.07 214.318Z" fill="#5F432F" stroke="#5F432F" stroke-width="3"/>
<path d="M225.872 247.607L214.222 214.988L243.504 232.926L235.288 236.822L242.493 245.86L238.204 249.561L231.039 240.362L225.872 247.607Z" fill="#F9F8F0" stroke="#5F432F" stroke-width="3"/>
</svg>
