<svg xmlns="http://www.w3.org/2000/svg" width="24" height="25" viewBox="0 0 24 25" fill="none">
  <path d="M15.75 14.7499C15.75 14.9488 15.671 15.1395 15.5303 15.2802C15.3897 15.4208 15.1989 15.4999 15 15.4999H9C8.80109 15.4999 8.61032 15.4208 8.46967 15.2802C8.32902 15.1395 8.25 14.9488 8.25 14.7499C8.25 14.551 8.32902 14.3602 8.46967 14.2195C8.61032 14.0789 8.80109 13.9999 9 13.9999H15C15.1989 13.9999 15.3897 14.0789 15.5303 14.2195C15.671 14.3602 15.75 14.551 15.75 14.7499ZM15 10.9999H9C8.80109 10.9999 8.61032 11.0789 8.46967 11.2195C8.32902 11.3602 8.25 11.551 8.25 11.7499C8.25 11.9488 8.32902 12.1395 8.46967 12.2802C8.61032 12.4208 8.80109 12.4999 9 12.4999H15C15.1989 12.4999 15.3897 12.4208 15.5303 12.2802C15.671 12.1395 15.75 11.9488 15.75 11.7499C15.75 11.551 15.671 11.3602 15.5303 11.2195C15.3897 11.0789 15.1989 10.9999 15 10.9999ZM20.25 4.99986V20.7499C20.25 21.1477 20.092 21.5292 19.8107 21.8105C19.5294 22.0918 19.1478 22.2499 18.75 22.2499H5.25C4.85218 22.2499 4.47064 22.0918 4.18934 21.8105C3.90804 21.5292 3.75 21.1477 3.75 20.7499V4.99986C3.75 4.60204 3.90804 4.22051 4.18934 3.9392C4.47064 3.6579 4.85218 3.49986 5.25 3.49986H8.64937C9.07079 3.02804 9.58709 2.65054 10.1645 2.39207C10.7419 2.13361 11.3674 2 12 2C12.6326 2 13.2581 2.13361 13.8355 2.39207C14.4129 2.65054 14.9292 3.02804 15.3506 3.49986H18.75C19.1478 3.49986 19.5294 3.6579 19.8107 3.9392C20.092 4.22051 20.25 4.60204 20.25 4.99986ZM9 6.49986H15C15 5.70421 14.6839 4.94115 14.1213 4.37854C13.5587 3.81593 12.7956 3.49986 12 3.49986C11.2044 3.49986 10.4413 3.81593 9.87868 4.37854C9.31607 4.94115 9 5.70421 9 6.49986ZM18.75 4.99986H16.2422C16.4128 5.48157 16.5 5.98884 16.5 6.49986V7.24986C16.5 7.44878 16.421 7.63954 16.2803 7.78019C16.1397 7.92085 15.9489 7.99986 15.75 7.99986H8.25C8.05109 7.99986 7.86032 7.92085 7.71967 7.78019C7.57902 7.63954 7.5 7.44878 7.5 7.24986V6.49986C7.50002 5.98884 7.58721 5.48157 7.75781 4.99986H5.25V20.7499H18.75V4.99986Z" fill="#6F5644"/>
</svg>