<svg width="301" height="280" viewBox="0 0 301 280" fill="none" xmlns="http://www.w3.org/2000/svg">
<g clip-path="url(#clip0_214_554)">
<path d="M49.0389 95.606C48.0652 89.0731 53.1261 83.202 59.7311 83.202L208.912 83.202C214.283 83.202 218.839 87.1451 219.61 92.4603L230.341 166.426C231.286 172.946 226.23 178.788 219.642 178.788H70.7553C65.4004 178.788 60.8525 174.868 60.0631 169.572L49.0389 95.606Z" fill="#5F432F" stroke="#5F432F" stroke-width="3.41379"/>
<path d="M56.3807 88.6109C55.407 82.078 60.4679 76.2069 67.0729 76.2069L216.254 76.2069C221.624 76.2069 226.181 80.15 226.952 85.4652L237.682 159.431C238.628 165.951 233.572 171.793 226.984 171.793H78.0971C72.7422 171.793 68.1943 167.873 67.4049 162.576L56.3807 88.6109Z" fill="#F9F8F0" stroke="#5F432F" stroke-width="3.41379"/>
<circle cx="147.673" cy="123.532" r="21.0323" fill="#5F432F" stroke="#5F432F" stroke-width="3"/>
<path d="M156.542 114.584L144.109 127.016L138.804 121.711C137.798 120.705 136.167 120.705 135.162 121.711C134.156 122.717 134.156 124.348 135.162 125.354L142.288 132.48C142.791 132.983 143.45 133.234 144.109 133.234C144.768 133.234 145.428 132.983 145.931 132.48L160.184 118.227C161.19 117.221 161.19 115.59 160.184 114.585C159.179 113.579 157.548 113.578 156.542 114.584Z" fill="#F9F8F0" stroke="#5F432F" stroke-width="3"/>
<path d="M238.741 151.492L244.096 190.58" stroke="#5F432F" stroke-width="3"/>
<path d="M269.945 173.479L212.394 173.478L206.041 129.506L263.418 129.506L269.945 173.479Z" fill="#5F432F" stroke="#5F432F" stroke-width="3"/>
<path d="M269.454 206.595L262.692 192.635C261.71 190.609 260.13 188.932 258.166 187.831L245.96 180.995L242.991 184.96L235.709 179.921L230.595 204.175L239.131 206.595L254.206 215.979L310.945 289.626L303.483 237.778L269.454 206.595Z" fill="#F9F8F0"/>
<path d="M269.454 206.595L262.692 192.635C261.71 190.609 260.13 188.932 258.166 187.831L245.96 180.995L242.991 184.96M269.454 206.595L254.206 215.979M269.454 206.595L303.483 237.778L310.945 289.626L254.206 215.979M249.248 192.074L245.96 195.585M242.991 184.96L236.179 195.585L241.949 199.868L245.96 195.585M242.991 184.96L235.709 179.921L230.595 204.175L239.131 206.595M245.96 195.585L244.91 207.783L239.131 206.595M254.206 215.979L239.131 206.595" stroke="#5F432F" stroke-width="3"/>
<path d="M263.746 151.531C263.746 162.293 252.649 171.562 238.208 171.562C223.766 171.562 212.669 162.293 212.669 151.531C212.669 140.769 223.766 131.5 238.208 131.5C252.649 131.5 263.746 140.769 263.746 151.531Z" fill="#5F432F" stroke="#5F432F" stroke-width="3"/>
<path d="M248.85 142.981L233.932 154.86L227.565 149.79C226.358 148.829 224.401 148.829 223.194 149.79C221.987 150.752 221.987 152.31 223.194 153.271L231.746 160.081C232.349 160.561 233.141 160.802 233.932 160.802C234.723 160.802 235.514 160.561 236.117 160.081L253.221 146.462C254.429 145.5 254.429 143.942 253.221 142.981C252.015 142.02 250.057 142.019 248.85 142.981Z" fill="#FCFCF8" stroke="#5F432F" stroke-width="3"/>
</g>
<rect x="0.5" y="0.5" width="300" height="279" rx="11.5" stroke="#ECEBD4"/>
<defs>
<clipPath id="clip0_214_554">
<rect width="301" height="280" rx="12" fill="white"/>
</clipPath>
</defs>
</svg>
