<svg width="301" height="280" viewBox="0 0 301 280" fill="none" xmlns="http://www.w3.org/2000/svg">
<g clip-path="url(#clip0_214_564)">
<path d="M52.6085 89.8634C52.1596 86.8499 54.4941 84.1419 57.5408 84.1419L216.779 84.1419C219.257 84.1419 221.359 85.961 221.715 88.413L234.106 173.865C234.542 176.872 232.21 179.567 229.171 179.567H70.2715C67.8012 179.567 65.7032 177.759 65.3392 175.315L52.6085 89.8634Z" fill="#5F432F" stroke="#5F432F" stroke-width="1.57476"/>
<path d="M59.7658 83.0089C59.3168 79.9955 61.6513 77.2874 64.6981 77.2874L223.937 77.2874C226.414 77.2874 228.516 79.1065 228.872 81.5585L241.263 167.01C241.699 170.018 239.367 172.713 236.328 172.713H77.4287C74.9584 172.713 72.8604 170.904 72.4964 168.461L59.7658 83.0089Z" fill="#F9F8F0" stroke="#5F432F" stroke-width="1.57476"/>
<path d="M238.741 151.492L244.096 190.58" stroke="#5F432F" stroke-width="3"/>
<path d="M269.945 173.479L212.394 173.478L206.041 129.506L263.418 129.506L269.945 173.479Z" fill="#5F432F" stroke="#5F432F" stroke-width="3"/>
<path d="M217.729 137.487L258.261 165.002M254.274 138.005L221.233 165.002" stroke="#F9F8F0" stroke-width="3"/>
<path d="M269.454 206.595L262.692 192.635C261.71 190.609 260.13 188.932 258.166 187.831L245.96 180.995L242.991 184.96L235.709 179.921L230.595 204.175L239.131 206.595L254.206 215.979L310.945 289.626L303.483 237.778L269.454 206.595Z" fill="#F9F8F0"/>
<path d="M269.454 206.595L262.692 192.635C261.71 190.609 260.13 188.932 258.166 187.831L245.96 180.995L242.991 184.96M269.454 206.595L254.206 215.979M269.454 206.595L303.483 237.778L310.945 289.626L254.206 215.979M249.248 192.074L245.96 195.585M242.991 184.96L236.179 195.585L241.949 199.868L245.96 195.585M242.991 184.96L235.709 179.921L230.595 204.175L239.131 206.595M245.96 195.585L244.91 207.783L239.131 206.595M254.206 215.979L239.131 206.595" stroke="#5F432F" stroke-width="3"/>
<mask id="path-10-inside-1_214_564" fill="white">
<path fill-rule="evenodd" clip-rule="evenodd" d="M177.204 124.5C177.204 139.136 165.34 151 150.704 151C136.069 151 124.204 139.136 124.204 124.5C124.204 109.864 136.069 98 150.704 98C165.34 98 177.204 109.864 177.204 124.5ZM160.448 140.776C157.601 142.485 154.267 143.467 150.704 143.467C140.229 143.467 131.737 134.975 131.737 124.5C131.737 120.937 132.719 117.604 134.428 114.756L160.448 140.776ZM166.98 134.244L140.96 108.224C143.808 106.515 147.141 105.533 150.704 105.533C161.179 105.533 169.671 114.025 169.671 124.5C169.671 128.063 168.689 131.396 166.98 134.244Z"/>
</mask>
<path fill-rule="evenodd" clip-rule="evenodd" d="M177.204 124.5C177.204 139.136 165.34 151 150.704 151C136.069 151 124.204 139.136 124.204 124.5C124.204 109.864 136.069 98 150.704 98C165.34 98 177.204 109.864 177.204 124.5ZM160.448 140.776C157.601 142.485 154.267 143.467 150.704 143.467C140.229 143.467 131.737 134.975 131.737 124.5C131.737 120.937 132.719 117.604 134.428 114.756L160.448 140.776ZM166.98 134.244L140.96 108.224C143.808 106.515 147.141 105.533 150.704 105.533C161.179 105.533 169.671 114.025 169.671 124.5C169.671 128.063 168.689 131.396 166.98 134.244Z" fill="#5F432F"/>
<path d="M160.448 140.776L161.992 143.349L165.287 141.372L162.57 138.655L160.448 140.776ZM134.428 114.756L136.549 112.634L133.832 109.917L131.856 113.212L134.428 114.756ZM140.96 108.224L139.417 105.651L136.122 107.628L138.839 110.345L140.96 108.224ZM166.98 134.244L164.859 136.366L167.576 139.083L169.553 135.788L166.98 134.244ZM150.704 154C166.997 154 180.204 140.792 180.204 124.5H174.204C174.204 137.479 163.683 148 150.704 148V154ZM121.204 124.5C121.204 140.792 134.412 154 150.704 154V148C137.725 148 127.204 137.479 127.204 124.5H121.204ZM150.704 95C134.412 95 121.204 108.208 121.204 124.5H127.204C127.204 111.521 137.725 101 150.704 101V95ZM180.204 124.5C180.204 108.208 166.997 95 150.704 95V101C163.683 101 174.204 111.521 174.204 124.5H180.204ZM150.704 146.467C154.826 146.467 158.691 145.329 161.992 143.349L158.905 138.204C156.51 139.64 153.708 140.467 150.704 140.467V146.467ZM128.737 124.5C128.737 136.632 138.572 146.467 150.704 146.467V140.467C141.886 140.467 134.737 133.318 134.737 124.5H128.737ZM131.856 113.212C129.875 116.513 128.737 120.378 128.737 124.5H134.737C134.737 121.496 135.564 118.694 137.001 116.299L131.856 113.212ZM162.57 138.655L136.549 112.634L132.307 116.877L158.327 142.897L162.57 138.655ZM138.839 110.345L164.859 136.366L169.102 132.123L143.081 106.103L138.839 110.345ZM150.704 102.533C146.583 102.533 142.718 103.671 139.417 105.651L142.503 110.796C144.898 109.36 147.7 108.533 150.704 108.533V102.533ZM172.671 124.5C172.671 112.368 162.836 102.533 150.704 102.533V108.533C159.523 108.533 166.671 115.682 166.671 124.5H172.671ZM169.553 135.788C171.533 132.487 172.671 128.622 172.671 124.5H166.671C166.671 127.504 165.845 130.306 164.408 132.701L169.553 135.788Z" fill="#5F432F" mask="url(#path-10-inside-1_214_564)"/>
</g>
<rect x="0.5" y="0.5" width="300" height="279" rx="11.5" stroke="#ECEBD4"/>
<defs>
<clipPath id="clip0_214_564">
<rect width="301" height="280" rx="12" fill="white"/>
</clipPath>
</defs>
</svg>
